# File created by Blade
# Date/Time:  Fri Jan 16 19:41:12 2015
# Frame Rate: 120.000 fps
#------------------------------------------------------
:FULLY-SPECIFIED
:DEGREES
710
root 19.053433 35.508504 -21.479793 8.936092 6.214388 0.454496
Spine -21.795667 -3.600751 2.491622
Head 19.133484 -0.379298 -8.970249
LeftShoulder -28.441323 -42.942179 43.181850
LeftArm 40.327302 -54.494043 -23.366986
LeftForeArm -24.885645 0.000000 156.434245
LeftHand 4.853576 -0.000000 44.765511
LeftHandThumb1 -26.253704 0.000000 33.147579
RightShoulder -3.333003 -44.046126 -8.334207
RightArm -17.244140 -65.819814 89.590971
RightForeArm -53.067766 0.000000 119.353517
RightHand 9.681360 0.000000 32.901736
RightHandThumb1 -24.326973 -0.000000 -32.862282
LeftUpLeg 0.736569 2.586432 -0.230546
LeftLeg -6.371965 -0.000000 0.000000
LeftFoot -20.927935 26.839562 -15.329392
LeftToeBase 23.669744 -0.000000 -0.000000
RightUpLeg 1.168928 -11.857502 -2.749245
RightLeg -2.995334 -0.000000 0.000000
RightFoot -23.851111 -24.004639 20.852879
RightToeBase 23.017881 -0.000000 -0.000000
711
root 19.049912 35.508633 -21.472614 8.920633 6.106433 0.440998
Spine -21.836692 -3.492870 2.476159
Head 19.288703 -0.381926 -9.037324
LeftShoulder -28.739085 -43.129959 43.479853
LeftArm 41.637411 -54.164456 -24.142030
LeftForeArm -23.203833 -0.000000 156.823548
LeftHand 5.052229 0.000000 44.174720
LeftHandThumb1 -26.253704 0.000000 33.147579
RightShoulder -3.117933 -44.159633 -8.554622
RightArm -17.272091 -65.893922 89.605586
RightForeArm -53.098717 -0.000000 120.087589
RightHand 9.349392 0.000000 33.746081
RightHandThumb1 -24.326973 -0.000000 -32.862282
LeftUpLeg 0.780523 2.619316 -0.225000
LeftLeg -6.381993 -0.000000 0.000000
LeftFoot -20.962149 26.906419 -15.378101
LeftToeBase 23.641069 -0.000000 -0.000000
RightUpLeg 1.165643 -11.786443 -2.746757
RightLeg -2.975320 -0.000000 0.000000
RightFoot -23.842037 -23.968978 20.833379
RightToeBase 22.969056 -0.000000 -0.000000
712
root 19.044861 35.508963 -21.466499 8.907654 6.009608 0.425369
Spine -21.873287 -3.388984 2.460071
Head 19.432302 -0.364559 -9.090101
LeftShoulder -29.027487 -43.432309 43.800853
LeftArm 42.762927 -53.881897 -24.689111
LeftForeArm -21.061151 -0.000000 157.122719
LeftHand 4.754974 -0.000000 43.593713
LeftHandThumb1 -26.253704 0.000000 33.147579
RightShoulder -2.878460 -44.191532 -8.766808
RightArm -17.430895 -65.818770 89.778421
RightForeArm -52.405401 0.000000 120.735316
RightHand 9.053014 -0.000000 34.800073
RightHandThumb1 -24.326973 -0.000000 -32.862282
LeftUpLeg 0.816233 2.663862 -0.214251
LeftLeg -6.389198 -0.000000 0.000000
LeftFoot -20.988948 26.956190 -15.413304
LeftToeBase 23.595637 -0.000000 -0.000000
RightUpLeg 1.161938 -11.721829 -2.739330
RightLeg -2.959413 -0.000000 0.000000
RightFoot -23.836521 -23.934627 20.831996
RightToeBase 22.946415 -0.000000 -0.000000
713
root 19.040551 35.508058 -21.459719 8.911454 5.912274 0.418866
Spine -21.919775 -3.330938 2.432086
Head 19.535915 -0.317039 -9.082810
LeftShoulder -29.295225 -43.494982 44.097070
LeftArm 43.654917 -53.488677 -24.934919
LeftForeArm -19.201967 -0.000000 157.412080
LeftHand 4.765728 -0.000000 43.201678
LeftHandThumb1 -26.253704 0.000000 33.147579
RightShoulder -2.698407 -44.269833 -8.925480
RightArm -17.387537 -65.772235 89.700452
RightForeArm -51.671269 -0.000000 121.330002
RightHand 8.791925 -0.000000 35.654125
RightHandThumb1 -24.326973 -0.000000 -32.862282
LeftUpLeg 0.840432 2.714353 -0.215250
LeftLeg -6.399875 -0.000000 0.000000
LeftFoot -21.013676 26.998882 -15.427918
LeftToeBase 23.617819 -0.000000 -0.000000
RightUpLeg 1.145146 -11.657291 -2.739625
RightLeg -2.945759 -0.000000 0.000000
RightFoot -23.827499 -23.890883 20.800083
RightToeBase 23.010646 -0.000000 -0.000000
714
root 19.035594 35.506996 -21.453752 8.933811 5.819799 0.408423
Spine -21.974605 -3.328373 2.420929
Head 19.587354 -0.212769 -9.039098
LeftShoulder -29.659682 -43.631888 44.505712
LeftArm 44.178838 -52.896027 -24.746977
LeftForeArm -17.375556 -0.000000 157.698327
LeftHand 4.453222 -0.000000 43.073248
LeftHandThumb1 -26.253704 0.000000 33.147579
RightShoulder -2.532192 -44.321799 -9.079947
RightArm -17.217141 -65.655025 89.476847
RightForeArm -50.680093 -0.000000 121.933678
RightHand 8.659820 -0.000000 36.610359
RightHandThumb1 -24.326973 -0.000000 -32.862282
LeftUpLeg 0.841509 2.740451 -0.210104
LeftLeg -6.409576 -0.000000 0.000000
LeftFoot -21.039127 27.073339 -15.424973
LeftToeBase 23.607315 -0.000000 -0.000000
RightUpLeg 1.109474 -11.600535 -2.729630
RightLeg -2.935890 -0.000000 0.000000
RightFoot -23.829066 -23.858058 20.776205
RightToeBase 23.012454 -0.000000 -0.000000
715
root 19.029123 35.505905 -21.447000 8.962296 5.741406 0.399489
Spine -22.046578 -3.281854 2.396629
Head 19.672526 -0.160028 -9.022623
LeftShoulder -29.967765 -43.868213 44.928227
LeftArm 44.503470 -52.287455 -24.428587
LeftForeArm -16.179636 -0.000000 157.902735
LeftHand 4.366183 -0.000000 42.558419
LeftHandThumb1 -26.253704 0.000000 33.147579
RightShoulder -2.391453 -44.279153 -9.170847
RightArm -17.401836 -65.453306 89.581435
RightForeArm -49.333130 -0.000000 122.489108
RightHand 8.493933 -0.000000 37.529762
RightHandThumb1 -24.326973 -0.000000 -32.862282
LeftUpLeg 0.833051 2.784353 -0.201974
LeftLeg -6.411026 -0.000000 0.000000
LeftFoot -21.069934 27.099384 -15.458830
LeftToeBase 23.559938 -0.000000 -0.000000
RightUpLeg 1.074129 -11.565120 -2.715689
RightLeg -2.930776 -0.000000 0.000000
RightFoot -23.808719 -23.823465 20.728057
RightToeBase 23.012018 -0.000000 -0.000000
716
root 19.021752 35.504730 -21.441445 8.991579 5.682783 0.383473
Spine -22.118037 -3.253567 2.392093
Head 19.753732 -0.116203 -9.021677
LeftShoulder -30.257506 -44.046065 45.250446
LeftArm 44.856872 -51.683818 -24.010558
LeftForeArm -15.505820 -0.000000 158.087755
LeftHand 4.228327 -0.000000 42.140370
LeftHandThumb1 -26.253704 0.000000 33.147579
RightShoulder -2.297567 -44.255954 -9.268140
RightArm -17.392621 -65.304715 89.543106
RightForeArm -47.769619 -0.000000 122.966036
RightHand 8.295376 -0.000000 38.140098
RightHandThumb1 -24.326973 -0.000000 -32.862282
LeftUpLeg 0.821073 2.798676 -0.182513
LeftLeg -6.411107 -0.000000 0.000000
LeftFoot -21.071889 27.136295 -15.444504
LeftToeBase 23.546888 -0.000000 -0.000000
RightUpLeg 1.039727 -11.522674 -2.692220
RightLeg -2.928647 -0.000000 0.000000
RightFoot -23.817452 -23.804888 20.716088
RightToeBase 23.058867 -0.000000 -0.000000
717
root 19.014744 35.506017 -21.436121 8.988760 5.628414 0.370580
Spine -22.183251 -3.091531 2.377806
Head 19.964894 -0.180423 -9.164254
LeftShoulder -30.280543 -44.249603 45.247866
LeftArm 45.212172 -51.125792 -23.495453
LeftForeArm -15.388145 0.000000 158.165801
LeftHand 4.411343 -0.000000 41.581322
LeftHandThumb1 -26.253704 0.000000 33.147579
RightShoulder -2.265027 -44.216882 -9.371608
RightArm -17.436103 -65.064682 89.708616
RightForeArm -46.063159 -0.000000 123.309616
RightHand 8.228021 -0.000000 38.705341
RightHandThumb1 -24.326973 -0.000000 -32.862282
LeftUpLeg 0.833113 2.852019 -0.165083
LeftLeg -6.410249 -0.000000 0.000000
LeftFoot -21.103702 27.131626 -15.496118
LeftToeBase 23.569958 -0.000000 -0.000000
RightUpLeg 1.039981 -11.485902 -2.676357
RightLeg -2.929554 -0.000000 0.000000
RightFoot -23.808641 -23.772753 20.743637
RightToeBase 23.027447 -0.000000 -0.000000
718
root 19.005747 35.505647 -21.429692 8.967032 5.596161 0.351797
Spine -22.254739 -3.034621 2.333814
Head 20.246110 -0.228827 -9.120587
LeftShoulder -30.306225 -44.121904 45.256589
LeftArm 45.776711 -50.736471 -23.225037
LeftForeArm -15.666490 0.000000 158.190398
LeftHand 4.621004 0.000000 40.632410
LeftHandThumb1 -26.253704 0.000000 33.147579
RightShoulder -2.105535 -44.208400 -9.472289
RightArm -17.353744 -64.779726 89.735122
RightForeArm -44.183376 -0.000000 123.673589
RightHand 8.123451 -0.000000 39.270408
RightHandThumb1 -24.326973 -0.000000 -32.862282
LeftUpLeg 0.864189 2.867493 -0.133209
LeftLeg -6.406465 -0.000000 0.000000
LeftFoot -21.120743 27.152338 -15.485008
LeftToeBase 23.597677 -0.000000 -0.000000
RightUpLeg 1.072831 -11.481626 -2.653254
RightLeg -2.948014 -0.000000 0.000000
RightFoot -23.778622 -23.738761 20.721072
RightToeBase 23.006186 -0.000000 -0.000000
719
root 18.997537 35.504691 -21.423474 8.998147 5.576635 0.344695
Spine -22.349677 -3.038311 2.301474
Head 20.416661 -0.275804 -9.112908
LeftShoulder -30.538947 -44.128883 45.474824
LeftArm 46.205911 -50.244865 -22.866716
LeftForeArm -16.089385 -0.000000 158.148343
LeftHand 4.698261 -0.000000 39.719353
LeftHandThumb1 -26.253704 0.000000 33.147579
RightShoulder -1.995962 -44.136557 -9.556520
RightArm -17.297459 -64.618017 89.791696
RightForeArm -42.114264 -0.000000 123.977781
RightHand 7.939502 0.000000 39.684368
RightHandThumb1 -24.326973 -0.000000 -32.862282
LeftUpLeg 0.841217 2.888045 -0.116206
LeftLeg -6.398997 -0.000000 0.000000
LeftFoot -21.110525 27.152595 -15.459047
LeftToeBase 23.556690 -0.000000 -0.000000
RightUpLeg 1.060935 -11.485773 -2.631816
RightLeg -2.977585 -0.000000 0.000000
RightFoot -23.762769 -23.723206 20.699566
RightToeBase 23.026942 -0.000000 -0.000000
720
root 18.988301 35.504547 -21.417149 9.046631 5.561760 0.341324
Spine -22.478907 -3.021077 2.264040
Head 20.581506 -0.337166 -9.103849
LeftShoulder -30.750364 -44.236006 45.731644
LeftArm 46.525955 -49.713055 -22.472655
LeftForeArm -16.737279 -0.000000 158.057419
LeftHand 4.817591 -0.000000 38.954664
LeftHandThumb1 -26.253704 0.000000 33.147579
RightShoulder -1.934216 -44.025880 -9.595357
RightArm -17.289727 -64.406026 89.859856
RightForeArm -40.086180 -0.000000 124.275784
RightHand 7.936989 -0.000000 39.963928
RightHandThumb1 -24.326973 -0.000000 -32.862282
LeftUpLeg 0.801285 2.901164 -0.100967
LeftLeg -6.395277 -0.000000 0.000000
LeftFoot -21.109606 27.154473 -15.468874
LeftToeBase 23.565490 -0.000000 -0.000000
RightUpLeg 1.036061 -11.504083 -2.606976
RightLeg -3.013619 -0.000000 0.000000
RightFoot -23.745648 -23.689759 20.689891
RightToeBase 22.989045 -0.000000 -0.000000
